<svg xmlns="http://www.w3.org/2000/svg" width="24" height="24" viewBox="0 0 24 24" fill="currentColor">
  <path fill-rule="evenodd" clip-rule="evenodd" d="M5.24961 8.0002C5.24961 5.76344 7.06286 3.9502 9.29961 3.9502C11.5364 3.9502 13.3496 5.76344 13.3496 8.0002C13.3496 10.2369 11.5364 12.0502 9.29961 12.0502C7.06286 12.0502 5.24961 10.2369 5.24961 8.0002ZM9.29961 5.7502C8.05697 5.7502 7.04961 6.75755 7.04961 8.0002C7.04961 9.24284 8.05697 10.2502 9.29961 10.2502C10.5423 10.2502 11.5496 9.24284 11.5496 8.0002C11.5496 6.75755 10.5423 5.7502 9.29961 5.7502Z" fill="currentColor"/>
  <path d="M18.2996 3.9502C18.7967 3.9502 19.1996 4.35314 19.1996 4.8502V6.6502H20.9996C21.4967 6.6502 21.8996 7.05314 21.8996 7.5502C21.8996 8.04725 21.4967 8.4502 20.9996 8.4502H19.1996V10.2502C19.1996 10.7473 18.7967 11.1502 18.2996 11.1502C17.8026 11.1502 17.3996 10.7473 17.3996 10.2502V8.4502H15.5996C15.1026 8.4502 14.6996 8.04725 14.6996 7.5502C14.6996 7.05314 15.1026 6.6502 15.5996 6.6502H17.3996V4.8502C17.3996 4.35314 17.8026 3.9502 18.2996 3.9502Z" fill="currentColor"/>
  <path d="M7.28249 13.8502H11.3167C12.0412 13.8502 12.6392 13.8502 13.1263 13.89C13.6321 13.9313 14.0972 14.02 14.534 14.2426C15.2114 14.5877 15.7621 15.1384 16.1072 15.8158C16.3298 16.2526 16.4185 16.7177 16.4598 17.2236C16.4996 17.7106 16.4996 18.3086 16.4996 19.033V20.1502C16.4996 20.6473 16.0967 21.0502 15.5996 21.0502C15.1026 21.0502 14.6996 20.6473 14.6996 20.1502V19.0702C14.6996 18.2993 14.6989 17.7752 14.6658 17.3701C14.6336 16.9756 14.5751 16.7738 14.5034 16.633C14.3308 16.2943 14.0555 16.019 13.7168 15.8464C13.576 15.7747 13.3742 15.7162 12.9797 15.684C12.5746 15.6509 12.0505 15.6502 11.2796 15.6502H7.31961C6.54869 15.6502 6.02462 15.6509 5.61954 15.684C5.22497 15.7162 5.02319 15.7747 4.88243 15.8464C4.54374 16.019 4.26837 16.2943 4.0958 16.633C4.02408 16.7738 3.96564 16.9756 3.93341 17.3701C3.90031 17.7752 3.89961 18.2993 3.89961 19.0702V20.1502C3.89961 20.6473 3.49667 21.0502 2.99961 21.0502C2.50255 21.0502 2.09961 20.6473 2.09961 20.1502L2.09961 19.033C2.0996 18.3086 2.09959 17.7106 2.13938 17.2236C2.18072 16.7177 2.26942 16.2526 2.49199 15.8158C2.83713 15.1384 3.38786 14.5877 4.06524 14.2426C4.50205 14.02 4.96708 13.9313 5.47297 13.89C5.96005 13.8502 6.55799 13.8502 7.28249 13.8502Z" fill="currentColor"/>
</svg>