<svg xmlns="http://www.w3.org/2000/svg" width="24" height="24" viewBox="0 0 24 24" fill="currentColor">
  <path d="M15.6986 11.8007C16.0501 12.1522 16.0501 12.722 15.6986 13.0735L11.7611 17.011C11.4096 17.3625 10.8398 17.3625 10.4883 17.011L8.7383 15.261C8.38683 14.9095 8.38683 14.3397 8.7383 13.9882C9.08978 13.6367 9.65962 13.6367 10.0111 13.9882L11.1247 15.1018L14.4258 11.8007C14.7773 11.4492 15.3471 11.4492 15.6986 11.8007Z" fill="currentColor"/>
  <path fill-rule="evenodd" clip-rule="evenodd" d="M9.87128 2.34961C9.88075 2.34961 9.89022 2.34961 9.8997 2.34961L14.1281 2.34961C14.3485 2.34958 14.5645 2.34956 14.7477 2.36452C14.9493 2.38099 15.1889 2.41997 15.4305 2.54308C15.7645 2.71325 16.0361 2.98479 16.2062 3.31878C16.3293 3.56039 16.3683 3.80006 16.3848 4.00163C16.3876 4.03579 16.3899 4.0711 16.3917 4.10736C16.7288 4.1191 17.02 4.14819 17.287 4.21973C18.5035 4.54567 19.4536 5.49583 19.7796 6.71228C19.9004 7.16328 19.9001 7.68339 19.8997 8.37734C19.8997 8.41751 19.8997 8.45826 19.8997 8.49961V16.5866C19.8997 17.2902 19.8997 17.8724 19.8609 18.347C19.8206 18.8404 19.734 19.2962 19.5155 19.7249C19.1775 20.3882 18.6383 20.9275 17.975 21.2654C17.5462 21.4839 17.0905 21.5706 16.5971 21.6109C16.1225 21.6496 15.5403 21.6496 14.8367 21.6496H9.16268C8.45909 21.6496 7.87689 21.6496 7.40232 21.6109C6.90893 21.5706 6.45316 21.4839 6.02438 21.2654C5.36111 20.9275 4.82186 20.3882 4.4839 19.7249C4.26543 19.2962 4.17876 18.8404 4.13845 18.347C4.09968 17.8724 4.09969 17.2902 4.0997 16.5866L4.0997 8.49961C4.0997 8.45826 4.09968 8.41751 4.09965 8.37734C4.09926 7.68339 4.09896 7.16328 4.21981 6.71228C4.54576 5.49583 5.49591 4.54567 6.71236 4.21973C6.97935 4.14819 7.27055 4.1191 7.6077 4.10736C7.60955 4.0711 7.61182 4.03579 7.61461 4.00163C7.63108 3.80006 7.67006 3.56039 7.79316 3.31878C7.96334 2.98479 8.23488 2.71325 8.56887 2.54308C8.81047 2.41997 9.05015 2.38099 9.25171 2.36452C9.4349 2.34956 9.65091 2.34958 9.87128 2.34961ZM7.6086 5.90886C7.39531 5.91697 7.27745 5.93181 7.17824 5.95839C6.58295 6.1179 6.11798 6.58287 5.95848 7.17815C5.90743 7.36866 5.8997 7.62795 5.8997 8.49961V16.5496C5.8997 17.2995 5.9004 17.8078 5.93247 18.2004C5.96369 18.5825 6.02008 18.775 6.08771 18.9077C6.25309 19.2323 6.51699 19.4962 6.84157 19.6616C6.9743 19.7292 7.16683 19.7856 7.54889 19.8168C7.94147 19.8489 8.44978 19.8496 9.1997 19.8496H14.7997C15.5496 19.8496 16.0579 19.8489 16.4505 19.8168C16.8326 19.7856 17.0251 19.7292 17.1578 19.6616C17.4824 19.4962 17.7463 19.2323 17.9117 18.9077C17.9793 18.775 18.0357 18.5825 18.0669 18.2004C18.099 17.8078 18.0997 17.2995 18.0997 16.5496V8.49961C18.0997 7.62795 18.092 7.36866 18.0409 7.17815C17.8814 6.58287 17.4164 6.1179 16.8212 5.95839C16.7219 5.93181 16.6041 5.91697 16.3908 5.90886C16.3891 5.93918 16.3871 5.9688 16.3848 5.9976C16.3683 6.19917 16.3293 6.43884 16.2062 6.68045C16.0361 7.01444 15.7645 7.28598 15.4305 7.45615C15.1889 7.57926 14.9493 7.61824 14.7477 7.6347C14.5645 7.64967 14.3485 7.64964 14.1281 7.64962L9.8997 7.64961C9.89022 7.64961 9.88074 7.64962 9.87128 7.64962C9.65091 7.64964 9.4349 7.64967 9.25171 7.6347C9.05015 7.61824 8.81047 7.57926 8.56887 7.45615C8.23488 7.28598 7.96334 7.01444 7.79316 6.68045C7.67006 6.43884 7.63108 6.19917 7.61461 5.9976C7.61226 5.96879 7.61027 5.93918 7.6086 5.90886ZM14.5997 4.64961C14.5997 4.39788 14.599 4.2579 14.5915 4.15779C14.4914 4.15027 14.3514 4.14961 14.0997 4.14961H9.8997C9.64797 4.14961 9.50799 4.15027 9.40788 4.15779C9.40036 4.2579 9.3997 4.39788 9.3997 4.64961V5.34961C9.3997 5.60135 9.40036 5.74133 9.40788 5.84143C9.50799 5.84896 9.64797 5.84961 9.8997 5.84961H14.0997C14.3514 5.84961 14.4914 5.84896 14.5915 5.84143C14.599 5.74133 14.5997 5.60135 14.5997 5.34961V4.64961Z" fill="currentColor"/>
</svg>