<svg xmlns="http://www.w3.org/2000/svg" width="24" height="24" viewBox="0 0 24 24" fill="currentColor">
  <path fill-rule="evenodd" clip-rule="evenodd" d="M8.04976 14.1501C8.04976 11.9133 9.863 10.1001 12.0998 10.1001C14.3365 10.1001 16.1498 11.9133 16.1498 14.1501C16.1498 14.9426 15.9221 15.6819 15.5287 16.3063L16.3362 17.1137C16.6876 17.4652 16.6876 18.035 16.3362 18.3865C15.9847 18.738 15.4148 18.738 15.0634 18.3865L14.2559 17.5791C13.6316 17.9725 12.8922 18.2001 12.0998 18.2001C9.863 18.2001 8.04976 16.3869 8.04976 14.1501ZM12.0998 11.9001C10.8571 11.9001 9.84976 12.9075 9.84976 14.1501C9.84976 15.3927 10.8571 16.4001 12.0998 16.4001C13.3424 16.4001 14.3498 15.3927 14.3498 14.1501C14.3498 12.9075 13.3424 11.9001 12.0998 11.9001Z" fill="currentColor"/>
  <path fill-rule="evenodd" clip-rule="evenodd" d="M9.18259 2.0001L13.8998 2.0001C14.1385 2.0001 14.3674 2.09492 14.5362 2.2637L19.9362 7.6637C20.1049 7.83249 20.1998 8.0614 20.1998 8.3001V16.6173C20.1998 17.3417 20.1998 17.9397 20.16 18.4267C20.1187 18.9326 20.0299 19.3977 19.8074 19.8345C19.4622 20.5118 18.9115 21.0626 18.2341 21.4077C17.7973 21.6303 17.3323 21.719 16.8264 21.7603C16.3393 21.8001 15.7414 21.8001 15.0169 21.8001H9.18258C8.45811 21.8001 7.86019 21.8001 7.37311 21.7603C6.86723 21.719 6.40219 21.6303 5.96539 21.4077C5.28801 21.0626 4.73728 20.5119 4.39213 19.8345C4.16957 19.3977 4.08086 18.9326 4.03953 18.4267C3.99974 17.9397 3.99974 17.3417 3.99976 16.6173V7.18293C3.99974 6.45846 3.99974 5.86053 4.03953 5.37346C4.08086 4.86757 4.16957 4.40254 4.39213 3.96573C4.73728 3.28835 5.28801 2.73762 5.96539 2.39248C6.40219 2.16991 6.86723 2.08121 7.37311 2.03987C7.86019 2.00008 8.45811 2.00009 9.18259 2.0001ZM7.51969 3.8339C7.12512 3.86613 6.92333 3.92457 6.78257 3.99629C6.44388 4.16886 6.16852 4.44422 5.99594 4.78292C5.92422 4.92368 5.86579 5.12546 5.83355 5.52003C5.80046 5.92511 5.79976 6.44918 5.79976 7.2201V16.5801C5.79976 17.351 5.80046 17.8751 5.83355 18.2802C5.86579 18.6747 5.92422 18.8765 5.99594 19.0173C6.16852 19.356 6.44388 19.6313 6.78257 19.8039C6.92333 19.8756 7.12512 19.9341 7.51969 19.9663C7.92477 19.9994 8.44884 20.0001 9.21976 20.0001H14.9798C15.7507 20.0001 16.2747 19.9994 16.6798 19.9663C17.0744 19.9341 17.2762 19.8756 17.4169 19.8039C17.7556 19.6313 18.031 19.356 18.2036 19.0173C18.2753 18.8765 18.3337 18.6747 18.366 18.2802C18.3991 17.8751 18.3998 17.351 18.3998 16.5801V9.20016L15.3111 9.20016C15.0839 9.20019 14.8627 9.20022 14.6753 9.18491C14.4696 9.1681 14.2269 9.12844 13.9826 9.00397C13.6439 8.8314 13.3685 8.55604 13.1959 8.21735C13.0715 7.97306 13.0318 7.7303 13.015 7.52457C12.9997 7.33723 12.9997 7.11602 12.9998 6.88888L12.9998 3.8001H9.21976C8.44884 3.8001 7.92477 3.8008 7.51969 3.8339ZM14.7998 5.07289L17.127 7.40016H15.3398C15.0729 7.40016 14.9269 7.39946 14.8219 7.39089C14.8177 7.39055 14.8138 7.3902 14.8101 7.38986C14.8097 7.38612 14.8094 7.38217 14.809 7.37799C14.8005 7.27307 14.7998 7.12704 14.7998 6.86016V5.07289Z" fill="currentColor"/>
</svg>