<svg xmlns="http://www.w3.org/2000/svg" width="24" height="24" viewBox="0 0 24 24" fill="currentColor">
  <path d="M7.54476 12.8891C7.54476 12.3921 7.94771 11.9891 8.44476 11.9891H15.5558C16.0528 11.9891 16.4558 12.3921 16.4558 12.8891C16.4558 13.3862 16.0528 13.7891 15.5558 13.7891H8.44476C7.94771 13.7891 7.54476 13.3862 7.54476 12.8891Z" fill="currentColor"/>
  <path d="M7.54476 16.4446C7.54476 15.9476 7.94771 15.5446 8.44476 15.5446H13.778C14.2751 15.5446 14.678 15.9476 14.678 16.4446C14.678 16.9417 14.2751 17.3446 13.778 17.3446H8.44476C7.94771 17.3446 7.54476 16.9417 7.54476 16.4446Z" fill="currentColor"/>
  <path fill-rule="evenodd" clip-rule="evenodd" d="M14.1322 2.52342C13.9308 2.43319 13.7213 2.36169 13.5061 2.31003C13.0935 2.21097 12.6657 2.21118 12.1019 2.21145C12.0719 2.21147 12.0415 2.21148 12.0107 2.21148L9.11876 2.21148C8.40358 2.21147 7.81265 2.21146 7.33114 2.2508C6.83082 2.29168 6.3699 2.37948 5.93667 2.60022C5.26557 2.94217 4.71994 3.48779 4.378 4.1589C4.15725 4.59213 4.06946 5.05304 4.02858 5.55336C3.98924 6.03488 3.98925 6.6258 3.98926 7.34098V16.6595C3.98925 17.3747 3.98924 17.9656 4.02858 18.4471C4.06946 18.9474 4.15725 19.4084 4.378 19.8416C4.71994 20.5127 5.26557 21.0583 5.93667 21.4003C6.3699 21.621 6.83082 21.7088 7.33114 21.7497C7.81265 21.789 8.40358 21.789 9.11876 21.789H14.8818C15.597 21.789 16.1879 21.789 16.6694 21.7497C17.1697 21.7088 17.6306 21.621 18.0639 21.4003C18.735 21.0583 19.2806 20.5127 19.6225 19.8416C19.8433 19.4084 19.9311 18.9474 19.972 18.4471C20.0113 17.9656 20.0113 17.3747 20.0113 16.6595V10.212C20.0113 10.1812 20.0113 10.1508 20.0113 10.1208C20.0116 9.55705 20.0118 9.12928 19.9127 8.71668C19.8612 8.50212 19.79 8.29313 19.7001 8.09233C19.6945 8.07908 19.6885 8.06599 19.6823 8.05307C19.624 7.92708 19.5584 7.80442 19.4857 7.68573C19.264 7.32393 18.9614 7.02161 18.5625 6.62315C18.5413 6.60194 18.5198 6.58046 18.498 6.55868L15.6641 3.72475C15.6423 3.70297 15.6208 3.68147 15.5996 3.66024C15.2012 3.2614 14.8988 2.95877 14.537 2.73706C14.4177 2.66397 14.2944 2.59806 14.1678 2.53962C14.1561 2.53397 14.1442 2.52857 14.1322 2.52342ZM12.878 4.02817C12.714 4.01401 12.4704 4.01148 12.0107 4.01148H9.15586C8.39429 4.01148 7.87723 4.01218 7.47772 4.04483C7.08871 4.07661 6.89104 4.13413 6.75385 4.20403C6.42144 4.37341 6.15118 4.64367 5.98181 4.97608C5.91191 5.11327 5.85438 5.31093 5.8226 5.69994C5.78996 6.09946 5.78926 6.61651 5.78926 7.37809V16.6224C5.78926 17.384 5.78996 17.901 5.8226 18.3005C5.85438 18.6895 5.91191 18.8872 5.98181 19.0244C6.15118 19.3568 6.42144 19.6271 6.75385 19.7964C6.89104 19.8664 7.08871 19.9239 7.47772 19.9557C7.87723 19.9883 8.39429 19.989 9.15586 19.989H14.8447C15.6062 19.989 16.1233 19.9883 16.5228 19.9557C16.9118 19.9239 17.1095 19.8664 17.2467 19.7964C17.5791 19.6271 17.8493 19.3568 18.0187 19.0244C18.0886 18.8872 18.1461 18.6895 18.1779 18.3005C18.2106 17.901 18.2113 17.384 18.2113 16.6224V10.212C18.2113 9.75238 18.2087 9.50886 18.1946 9.3448L15.1716 9.3448C14.9475 9.34483 14.7286 9.34486 14.5431 9.3297C14.3392 9.31304 14.0978 9.27369 13.8548 9.14983C13.5182 8.97832 13.2445 8.70466 13.073 8.36806C12.9491 8.12497 12.9098 7.88358 12.8931 7.6797C12.878 7.49421 12.878 7.27531 12.878 7.05118L12.878 4.02817ZM14.678 5.28428V7.0226C14.678 7.28636 14.6787 7.43005 14.6871 7.53312L14.6873 7.53548L14.6897 7.53568C14.7928 7.5441 14.9365 7.5448 15.2002 7.5448H16.9385L14.678 5.28428Z" fill="currentColor"/>
</svg>