<svg xmlns="http://www.w3.org/2000/svg" width="24" height="24" viewBox="0 0 24 24" fill="currentColor">
  <path fill-rule="evenodd" clip-rule="evenodd" d="M9.52441 12.2251C9.52441 10.8582 10.6325 9.7501 11.9994 9.7501C13.3663 9.7501 14.4744 10.8582 14.4744 12.2251V12.9253C14.6566 12.9469 14.8611 12.9916 15.0666 13.0963C15.4053 13.2689 15.6807 13.5442 15.8532 13.8829C15.9777 14.1272 16.0174 14.37 16.0342 14.5757C16.0495 14.763 16.0494 14.9842 16.0494 15.2114V15.9888C16.0494 16.216 16.0495 16.4372 16.0342 16.6245C16.0174 16.8302 15.9777 17.073 15.8532 17.3173C15.6807 17.656 15.4053 17.9313 15.0666 18.1039C14.8223 18.2284 14.5796 18.268 14.3738 18.2848C14.1865 18.3002 13.9653 18.3001 13.7381 18.3001H10.2607C10.0336 18.3001 9.81235 18.3002 9.62501 18.2848C9.41927 18.268 9.17651 18.2284 8.93223 18.1039C8.59354 17.9313 8.31818 17.656 8.1456 17.3173C8.02114 17.073 7.98147 16.8302 7.96467 16.6245C7.94936 16.4372 7.94939 16.2159 7.94941 15.9888V15.2114C7.94939 14.9843 7.94936 14.763 7.96467 14.5757C7.98147 14.37 8.02114 14.1272 8.1456 13.8829C8.31818 13.5442 8.59354 13.2689 8.93223 13.0963C9.13775 12.9916 9.34219 12.9469 9.52441 12.9253V12.2251ZM10.2894 14.7001C10.0225 14.7001 9.87651 14.7008 9.77158 14.7094C9.76741 14.7097 9.76345 14.7101 9.75972 14.7104C9.75937 14.7141 9.75903 14.7181 9.75869 14.7223C9.75011 14.8272 9.74941 14.9732 9.74941 15.2401V15.9601C9.74941 16.227 9.75011 16.373 9.75869 16.4779C9.75903 16.4821 9.75937 16.4861 9.75972 16.4898C9.76345 16.4901 9.76741 16.4905 9.77158 16.4908C9.87651 16.4994 10.0225 16.5001 10.2894 16.5001H13.7094C13.9763 16.5001 14.1223 16.4994 14.2272 16.4908C14.2314 16.4905 14.2354 16.4901 14.2391 16.4898C14.2395 16.4861 14.2398 16.4821 14.2401 16.4779C14.2487 16.373 14.2494 16.227 14.2494 15.9601V15.2401C14.2494 14.9732 14.2487 14.8272 14.2401 14.7223C14.2398 14.7181 14.2395 14.7141 14.2391 14.7104C14.2354 14.7101 14.2314 14.7097 14.2272 14.7094C14.1223 14.7008 13.9763 14.7001 13.7094 14.7001H10.2894ZM12.6744 12.9001H11.3244V12.2251C11.3244 11.8523 11.6266 11.5501 11.9994 11.5501C12.3722 11.5501 12.6744 11.8523 12.6744 12.2251V12.9001Z" fill="currentColor"/>
  <path fill-rule="evenodd" clip-rule="evenodd" d="M9.08225 2.1001L13.7994 2.1001C14.0381 2.1001 14.267 2.19492 14.4358 2.3637L19.8358 7.7637C20.0046 7.93248 20.0994 8.1614 20.0994 8.4001V16.7173C20.0994 17.4417 20.0994 18.0397 20.0596 18.5267C20.0183 19.0326 19.9296 19.4977 19.707 19.9345C19.3619 20.6118 18.8112 21.1626 18.1338 21.5077C17.697 21.7303 17.2319 21.819 16.7261 21.8603C16.239 21.9001 15.6411 21.9001 14.9166 21.9001H9.08224C8.35777 21.9001 7.75985 21.9001 7.27277 21.8603C6.76688 21.819 6.30185 21.7303 5.86505 21.5077C5.18767 21.1626 4.63694 20.6118 4.29179 19.9345C4.06923 19.4977 3.98052 19.0326 3.93919 18.5267C3.89939 18.0397 3.8994 17.4417 3.89941 16.7173V7.28293C3.8994 6.55846 3.89939 5.96053 3.93919 5.47345C3.98052 4.96757 4.06923 4.50253 4.29179 4.06573C4.63694 3.38835 5.18767 2.83762 5.86505 2.49247C6.30185 2.26991 6.76688 2.18121 7.27277 2.13987C7.75985 2.10008 8.35777 2.10009 9.08225 2.1001ZM7.41935 3.93389C7.02478 3.96613 6.82299 4.02457 6.68223 4.09629C6.34354 4.26886 6.06818 4.54422 5.8956 4.88292C5.82388 5.02368 5.76545 5.22546 5.73321 5.62003C5.70011 6.02511 5.69941 6.54918 5.69941 7.3201V16.6801C5.69941 17.451 5.70011 17.9751 5.73321 18.3802C5.76545 18.7747 5.82388 18.9765 5.8956 19.1173C6.06818 19.456 6.34354 19.7313 6.68223 19.9039C6.82299 19.9756 7.02478 20.0341 7.41935 20.0663C7.82443 20.0994 8.34849 20.1001 9.11941 20.1001H14.8794C15.6503 20.1001 16.1744 20.0994 16.5795 20.0663C16.9741 20.0341 17.1758 19.9756 17.3166 19.9039C17.6553 19.7313 17.9307 19.456 18.1032 19.1173C18.1749 18.9765 18.2334 18.7747 18.2656 18.3802C18.2987 17.9751 18.2994 17.451 18.2994 16.6801V9.3001H13.7994C13.3024 9.3001 12.8994 8.89715 12.8994 8.4001V3.9001H9.11941C8.34849 3.9001 7.82443 3.9008 7.41935 3.93389ZM14.6994 5.17289L17.0266 7.5001H14.6994V5.17289Z" fill="currentColor"/>
</svg>