<svg xmlns="http://www.w3.org/2000/svg" width="24" height="24" viewBox="0 0 24 24" fill="currentColor">
  <path d="M9.64813 3.19946H14.7716C15.407 3.19945 15.9326 3.19944 16.3611 3.23489C16.8066 3.27174 17.2174 3.35096 17.6034 3.55008C18.2007 3.85824 18.6845 4.34897 18.9871 4.95027C19.182 5.33765 19.2597 5.7499 19.296 6.1988C19.3309 6.63136 19.3309 7.16251 19.3308 7.80679V10.7995C19.3308 11.2413 18.9727 11.5995 18.5308 11.5995C18.089 11.5995 17.7308 11.2413 17.7308 10.7995V7.83946C17.7308 7.15436 17.7302 6.68806 17.7011 6.32749C17.6728 5.97598 17.6213 5.79551 17.5579 5.66951C17.406 5.36763 17.1645 5.12405 16.8698 4.97201C16.7487 4.90955 16.5742 4.85798 16.2292 4.82944C15.8745 4.8001 15.4154 4.79946 14.7383 4.79946H9.68146C9.00433 4.79946 8.54519 4.8001 8.19056 4.82944C7.84556 4.85798 7.67097 4.90955 7.5499 4.97201C7.25519 5.12405 7.01375 5.36763 6.86184 5.66951C6.79843 5.79551 6.74694 5.97598 6.71857 6.32749C6.68947 6.68806 6.68887 7.15436 6.68887 7.83946V16.1595C6.68887 16.8446 6.68947 17.3109 6.71857 17.6714C6.74694 18.0229 6.79843 18.2034 6.86184 18.3294C7.01375 18.6313 7.25519 18.8749 7.5499 19.0269C7.67097 19.0894 7.84556 19.1409 8.19056 19.1695C8.54519 19.1988 9.00433 19.1995 9.68146 19.1995H11.8148C12.2566 19.1995 12.6148 19.5576 12.6148 19.9995C12.6148 20.4413 12.2566 20.7995 11.8148 20.7995H9.64816C9.01272 20.7995 8.48708 20.7995 8.05865 20.764C7.61312 20.7272 7.2023 20.648 6.81633 20.4488C6.219 20.1407 5.7352 19.65 5.43261 19.0487C5.23766 18.6613 5.15998 18.249 5.12375 17.8001C5.08885 17.3676 5.08886 16.8364 5.08887 16.1922V7.80677C5.08886 7.1625 5.08885 6.63136 5.12375 6.1988C5.15998 5.7499 5.23766 5.33765 5.43261 4.95027C5.7352 4.34897 6.219 3.85824 6.81633 3.55008C7.2023 3.35096 7.61312 3.27174 8.05865 3.23489C8.48708 3.19944 9.0127 3.19945 9.64813 3.19946Z" fill="currentColor"/>
  <path d="M8.24936 7.99946C8.24936 7.55764 8.60753 7.19946 9.04936 7.19946H15.3703C15.8122 7.19946 16.1704 7.55764 16.1704 7.99946C16.1704 8.44129 15.8122 8.79946 15.3703 8.79946H9.04936C8.60753 8.79946 8.24936 8.44129 8.24936 7.99946Z" fill="currentColor"/>
  <path d="M8.24936 11.1995C8.24936 10.7576 8.60753 10.3995 9.04936 10.3995H13.7901C14.2319 10.3995 14.5901 10.7576 14.5901 11.1995C14.5901 11.6413 14.2319 11.9995 13.7901 11.9995H9.04936C8.60753 11.9995 8.24936 11.6413 8.24936 11.1995Z" fill="currentColor"/>
  <path fill-rule="evenodd" clip-rule="evenodd" d="M13.3852 16.7995C13.3852 14.8206 14.9721 13.1995 16.9506 13.1995C18.9291 13.1995 20.516 14.8206 20.516 16.7995C20.516 17.5026 20.3157 18.1606 19.9686 18.7167L20.6803 19.4373C20.9908 19.7517 20.9876 20.2582 20.6733 20.5687C20.3589 20.8791 19.8524 20.876 19.5419 20.5616L18.8415 19.8524C18.2944 20.1988 17.6467 20.3995 16.9506 20.3995C14.9721 20.3995 13.3852 18.7783 13.3852 16.7995ZM16.9506 14.7995C15.8745 14.7995 14.9852 15.6855 14.9852 16.7995C14.9852 17.9134 15.8745 18.7995 16.9506 18.7995C18.0267 18.7995 18.916 17.9134 18.916 16.7995C18.916 15.6855 18.0267 14.7995 16.9506 14.7995Z" fill="currentColor"/>
  <path d="M8.24936 14.3995C8.24936 13.9576 8.60753 13.5995 9.04936 13.5995H10.6296C11.0714 13.5995 11.4296 13.9576 11.4296 14.3995C11.4296 14.8413 11.0714 15.1995 10.6296 15.1995H9.04936C8.60753 15.1995 8.24936 14.8413 8.24936 14.3995Z" fill="currentColor"/>
</svg>