<svg xmlns="http://www.w3.org/2000/svg" width="24" height="24" viewBox="0 0 24 24" fill="currentColor">
  <path fill-rule="evenodd" clip-rule="evenodd" d="M11.4324 3.16408C11.8057 3.07812 12.1941 3.07812 12.5675 3.16408C12.9954 3.26261 13.3753 3.50567 13.7876 3.76952C13.8179 3.78888 13.8483 3.80835 13.879 3.82788L18.8621 7.00512C18.8812 7.01733 18.9003 7.02948 18.9193 7.04159L19.9014 7.66778C19.9159 7.67703 19.931 7.68661 19.9467 7.69653C20.1091 7.79913 20.3299 7.93866 20.4989 8.13704C20.6451 8.30862 20.7557 8.50806 20.8234 8.724C20.902 8.97487 20.9009 9.23723 20.9001 9.42646C20.9 9.44482 20.8999 9.46248 20.8999 9.47939V15.2698C20.9 15.8976 20.9 16.4236 20.8641 16.8538C20.8267 17.3034 20.7455 17.7277 20.537 18.129C20.2183 18.7427 19.7114 19.2384 19.0919 19.5481C18.6887 19.7496 18.2627 19.8282 17.8082 19.8647C17.3718 19.8996 16.8374 19.8996 16.1959 19.8996H7.80397C7.1625 19.8996 6.6281 19.8996 6.19172 19.8647C5.73721 19.8282 5.31117 19.7496 4.90799 19.5481C4.2885 19.2384 3.7816 18.7427 3.46284 18.129C3.25438 17.7277 3.17319 17.3034 3.13574 16.8538C3.09991 16.4236 3.09992 15.8976 3.09994 15.2699L3.09994 9.47939C3.09994 9.46248 3.09986 9.44482 3.09978 9.42646C3.09897 9.23723 3.09784 8.97487 3.17648 8.724C3.24418 8.50805 3.35479 8.30861 3.50095 8.13704C3.66994 7.93867 3.89075 7.79914 4.05312 7.69653C4.06883 7.68661 4.08399 7.67703 4.0985 7.66778L5.07974 7.04214C5.099 7.02985 5.11835 7.01752 5.13779 7.00513C5.14756 6.99889 5.15736 6.99265 5.16717 6.98639L10.1209 3.82789C10.1515 3.80835 10.182 3.78888 10.2122 3.76952C10.6246 3.50567 11.0044 3.26261 11.4324 3.16408ZM11.0886 5.34562L6.13488 8.50413C5.93047 8.63447 5.78807 8.72578 5.68344 8.798C5.78807 8.87022 5.93047 8.96153 6.13488 9.09186L11.0886 12.2504C11.6504 12.6086 11.7515 12.6583 11.8363 12.6778C11.9438 12.7026 12.056 12.7026 12.1636 12.6778C12.2484 12.6583 12.3495 12.6086 12.9113 12.2504L17.865 9.09187C18.0694 8.96153 18.2118 8.87022 18.3164 8.798C18.2121 8.72601 18.0703 8.63504 17.8669 8.50536L12.9113 5.34562C12.3494 4.98742 12.2484 4.93771 12.1636 4.91819C12.056 4.89342 11.9438 4.89342 11.8363 4.91819C11.7515 4.93771 11.6504 4.98742 11.0886 5.34562ZM19.0999 10.4384C19.023 10.4883 18.9433 10.5391 18.8621 10.5909L15.5915 12.6762L19.099 15.7839C19.0999 15.6183 19.0999 15.4357 19.0999 15.2329V10.4384ZM18.59 17.7378L14.0131 13.6826L13.879 13.7681C13.8483 13.7876 13.8179 13.8071 13.7877 13.8265C13.3753 14.0903 12.9954 14.3334 12.5675 14.4319C12.1941 14.5179 11.8057 14.5179 11.4324 14.4319C11.0044 14.3334 10.6246 14.0903 10.2122 13.8265C10.182 13.8071 10.1515 13.7876 10.1209 13.7681L9.9868 13.6826L5.40988 17.7378C5.50121 17.8156 5.60274 17.883 5.71273 17.938C5.82295 17.9931 5.98962 18.0427 6.33552 18.0704C6.69143 18.0989 7.15331 18.0996 7.83994 18.0996H16.1599C16.8466 18.0996 17.3084 18.0989 17.6644 18.0704C18.0103 18.0427 18.1769 17.9931 18.2871 17.938C18.3971 17.883 18.4987 17.8156 18.59 17.7378ZM4.90088 15.7839L8.40839 12.6762L5.16717 10.6096C5.15735 10.6033 5.14755 10.5971 5.13777 10.5909C5.0566 10.5391 4.97686 10.4883 4.89994 10.4384V15.2329C4.89994 15.4357 4.9 15.6183 4.90088 15.7839Z" fill="currentColor"/>
</svg>