<svg xmlns="http://www.w3.org/2000/svg" width="24" height="24" viewBox="0 0 24 24" fill="none">
  <path d="M9.5998 11.2L11.9998 13.6L19.9998 5.60005M15.1998 4.80005H8.6398C7.29568 4.80005 6.62362 4.80005 6.11023 5.06163C5.65864 5.29173 5.29149 5.65888 5.06139 6.11047C4.7998 6.62386 4.7998 7.29592 4.7998 8.64005V15.36C4.7998 16.7042 4.7998 17.3762 5.06139 17.8896C5.29149 18.3412 5.65864 18.7084 6.11023 18.9385C6.62362 19.2 7.29568 19.2 8.6398 19.2H15.3598C16.7039 19.2 17.376 19.2 17.8894 18.9385C18.341 18.7084 18.7081 18.3412 18.9382 17.8896C19.1998 17.3762 19.1998 16.7042 19.1998 15.36V12" stroke="currentColor" stroke-width="2" stroke-linecap="round" stroke-linejoin="round"/>
</svg>