<svg xmlns="http://www.w3.org/2000/svg" width="24" height="24" viewBox="0 0 24 24" fill="currentColor">
  <path fill-rule="evenodd" clip-rule="evenodd" d="M5.24961 7.50049C5.24961 5.01521 7.26433 3.00049 9.74961 3.00049C12.2349 3.00049 14.2496 5.01521 14.2496 7.50049C14.2496 9.98577 12.2349 12.0005 9.74961 12.0005C7.26433 12.0005 5.24961 9.98577 5.24961 7.50049ZM9.74961 4.80049C8.25844 4.80049 7.04961 6.00932 7.04961 7.50049C7.04961 8.99166 8.25844 10.2005 9.74961 10.2005C11.2408 10.2005 12.4496 8.99166 12.4496 7.50049C12.4496 6.00932 11.2408 4.80049 9.74961 4.80049Z" fill="currentColor"/>
  <path d="M14.3154 3.82448C14.5019 3.36374 15.0266 3.14142 15.4873 3.32793C17.1348 3.99482 18.2996 5.61055 18.2996 7.50049C18.2996 9.39043 17.1348 11.0062 15.4873 11.673C15.0266 11.8596 14.5019 11.6372 14.3154 11.1765C14.1289 10.7158 14.3512 10.1911 14.8119 10.0046C15.8031 9.60335 16.4996 8.63219 16.4996 7.50049C16.4996 6.36879 15.8031 5.39762 14.8119 4.99642C14.3512 4.80991 14.1289 4.28522 14.3154 3.82448Z" fill="currentColor"/>
  <path d="M8.36765 13.8005H11.1316C11.9432 13.8005 12.5978 13.8005 13.1306 13.8368C13.6785 13.8742 14.163 13.953 14.6217 14.143C15.7243 14.5998 16.6003 15.4758 17.0571 16.5784C17.2471 17.0371 17.3259 17.5216 17.3633 18.0695C17.3996 18.6023 17.3996 19.2569 17.3996 20.0685V20.1005C17.3996 20.5975 16.9967 21.0005 16.4996 21.0005C16.0026 21.0005 15.5996 20.5975 15.5996 20.1005C15.5996 19.2495 15.5991 18.6563 15.5674 18.192C15.5363 17.7358 15.4781 17.4701 15.3941 17.2672C15.1201 16.6057 14.5944 16.08 13.9329 15.806C13.73 15.722 13.4643 15.6638 13.0081 15.6327C12.5438 15.601 11.9506 15.6005 11.0996 15.6005H8.39961C7.5486 15.6005 6.95542 15.601 6.49111 15.6327C6.03489 15.6638 5.76921 15.722 5.56636 15.806C4.90479 16.08 4.37917 16.6057 4.10513 17.2672C4.02111 17.4701 3.9629 17.7358 3.93178 18.192C3.9001 18.6563 3.89961 19.2495 3.89961 20.1005C3.89961 20.5975 3.49667 21.0005 2.99961 21.0005C2.50255 21.0005 2.09961 20.5975 2.09961 20.1005L2.09961 20.0685C2.0996 19.2569 2.0996 18.6023 2.13595 18.0695C2.17333 17.5216 2.25214 17.0371 2.44215 16.5784C2.89887 15.4758 3.77491 14.5998 4.87753 14.143C5.33626 13.953 5.82072 13.8742 6.36859 13.8368C6.90139 13.8005 7.55607 13.8005 8.36765 13.8005Z" fill="currentColor"/>
  <path d="M17.428 14.5896C17.5519 14.1082 18.0426 13.8184 18.5239 13.9423C20.4646 14.4418 21.8996 16.2024 21.8996 18.3005V20.1005C21.8996 20.5975 21.4967 21.0005 20.9996 21.0005C20.5026 21.0005 20.0996 20.5975 20.0996 20.1005V18.3005C20.0996 17.0436 19.24 15.9853 18.0753 15.6855C17.5939 15.5616 17.3041 15.0709 17.428 14.5896Z" fill="currentColor"/>
</svg>