<svg width="16" height="19" viewBox="0 0 16 19" fill="none" xmlns="http://www.w3.org/2000/svg">
<path fill-rule="evenodd" clip-rule="evenodd" d="M4.77987 0.5C5.19669 0.5 5.53459 0.84538 5.53459 1.27143V2.14571H10.4654V1.27143C10.4654 0.84538 10.8033 0.5 11.2201 0.5C11.6369 0.5 11.9748 0.84538 11.9748 1.27143V2.14673C12.378 2.14907 12.7274 2.15674 13.0288 2.18191C13.4782 2.21944 13.8868 2.29968 14.2693 2.49885C14.8657 2.80948 15.3506 3.30514 15.6545 3.91479C15.8494 4.30569 15.9279 4.72334 15.9646 5.18269C16 5.6259 16 6.17078 16 6.83475V13.811C16 14.4749 16 15.0198 15.9646 15.463C15.9279 15.9224 15.8494 16.34 15.6545 16.7309C15.3506 17.3406 14.8657 17.8362 14.2693 18.1469C13.8868 18.346 13.4782 18.4263 13.0288 18.4638C12.5952 18.5 12.0622 18.5 11.4126 18.5H4.5874C3.93784 18.5 3.40478 18.5 2.97118 18.4638C2.52179 18.4263 2.11318 18.346 1.73075 18.1469C1.13431 17.8362 0.64939 17.3406 0.345489 16.7309C0.150629 16.34 0.0721277 15.9224 0.0354107 15.463C-1.63819e-05 15.0198 -8.88279e-06 14.475 2.94073e-07 13.811V6.83471C-8.88279e-06 6.17076 -1.63819e-05 5.62589 0.0354107 5.18269C0.0721277 4.72334 0.150629 4.30569 0.345489 3.91479C0.64939 3.30514 1.13431 2.80948 1.73075 2.49885C2.11318 2.29968 2.52179 2.21944 2.97118 2.18191C3.27255 2.15674 3.62197 2.14907 4.02516 2.14673V1.27143C4.02516 0.84538 4.36306 0.5 4.77987 0.5ZM4.02516 3.68969C3.64169 3.69196 3.34313 3.69884 3.0941 3.71964C2.73805 3.74938 2.5502 3.80367 2.41602 3.87355C2.1036 4.03626 1.84959 4.29589 1.6904 4.61523C1.62204 4.75238 1.56892 4.94439 1.53983 5.30832C1.51002 5.68126 1.50943 6.16286 1.50943 6.86686V7.08286H14.4906V6.86686C14.4906 6.16286 14.49 5.68126 14.4602 5.30832C14.4311 4.94439 14.378 4.75238 14.3096 4.61523C14.1504 4.29589 13.8964 4.03626 13.584 3.87355C13.4498 3.80367 13.262 3.74938 12.9059 3.71964C12.6569 3.69884 12.3583 3.69196 11.9748 3.68969V4.56286C11.9748 4.98891 11.6369 5.33429 11.2201 5.33429C10.8033 5.33429 10.4654 4.98891 10.4654 4.56286V3.68857H5.53459V4.56286C5.53459 4.98891 5.19669 5.33429 4.77987 5.33429C4.36306 5.33429 4.02516 4.98891 4.02516 4.56286V3.68969ZM14.4906 8.62572H1.50943V13.7789C1.50943 14.4829 1.51002 14.9645 1.53983 15.3374C1.56892 15.7013 1.62204 15.8933 1.6904 16.0305C1.84959 16.3498 2.1036 16.6095 2.41602 16.7722C2.5502 16.842 2.73805 16.8963 3.0941 16.9261C3.45896 16.9565 3.93012 16.9571 4.61887 16.9571H11.3811C12.0699 16.9571 12.541 16.9565 12.9059 16.9261C13.262 16.8963 13.4498 16.842 13.584 16.7722C13.8964 16.6095 14.1504 16.3498 14.3096 16.0305C14.378 15.8933 14.4311 15.7013 14.4602 15.3374C14.49 14.9645 14.4906 14.4829 14.4906 13.7789V8.62572Z" fill="#525463"/>
</svg>
