<svg width="25" height="24" viewBox="0 0 25 24" fill="none" xmlns="http://www.w3.org/2000/svg">
<path d="M9.8498 11.1998L12.2498 13.5998L20.2498 5.5998M15.4498 4.7998H8.8898C7.54568 4.7998 6.87362 4.7998 6.36023 5.06139C5.90864 5.29149 5.54149 5.65864 5.31139 6.11023C5.0498 6.62362 5.0498 7.29568 5.0498 8.6398V15.3598C5.0498 16.7039 5.0498 17.376 5.31139 17.8894C5.54149 18.341 5.90864 18.7081 6.36023 18.9382C6.87362 19.1998 7.54568 19.1998 8.8898 19.1998H15.6098C16.9539 19.1998 17.626 19.1998 18.1394 18.9382C18.591 18.7081 18.9581 18.341 19.1882 17.8894C19.4498 17.376 19.4498 16.7039 19.4498 15.3598V11.9998" stroke="white" stroke-width="2" stroke-linecap="round" stroke-linejoin="round"/>
</svg>
