<svg width="25" height="24" viewBox="0 0 25 24" fill="none" xmlns="http://www.w3.org/2000/svg">
<path d="M11.25 4.00023H7.05C5.36984 4.00023 4.52976 4.00023 3.88803 4.32721C3.32354 4.61483 2.8646 5.07377 2.57698 5.63826C2.25 6.27999 2.25 7.12007 2.25 8.80023V17.2002C2.25 18.8804 2.25 19.7205 2.57698 20.3622C2.8646 20.9267 3.32354 21.3856 3.88803 21.6732C4.52976 22.0002 5.36984 22.0002 7.05 22.0002H15.45C17.1302 22.0002 17.9702 22.0002 18.612 21.6732C19.1765 21.3856 19.6354 20.9267 19.923 20.3622C20.25 19.7205 20.25 18.8804 20.25 17.2002V13.0002M8.24997 16.0002H9.92452C10.4137 16.0002 10.6583 16.0002 10.8885 15.945C11.0925 15.896 11.2876 15.8152 11.4666 15.7055C11.6684 15.5818 11.8414 15.4089 12.1873 15.063L21.75 5.50023C22.5784 4.6718 22.5784 3.32865 21.75 2.50023C20.9216 1.6718 19.5784 1.6718 18.75 2.50022L9.18723 12.063C8.84133 12.4089 8.66838 12.5818 8.54469 12.7837C8.43504 12.9626 8.35423 13.1577 8.30523 13.3618C8.24997 13.5919 8.24997 13.8365 8.24997 14.3257V16.0002Z" stroke="white" stroke-width="2" stroke-linecap="round" stroke-linejoin="round"/>
</svg>
