<svg xmlns="http://www.w3.org/2000/svg" width="177" height="30" viewBox="0 0 177 30" fill="none">
  <path d="M114.72 8.21095V9.85213H102.813V8.21095H114.72ZM114.437 13.6671C114.437 14.2257 114.289 14.7236 113.997 15.1549C113.705 15.5861 113.301 15.9479 112.786 16.2316C112.272 16.5182 111.671 16.7353 110.986 16.88C110.301 17.0276 109.558 17.1 108.758 17.1C107.957 17.1 107.209 17.0276 106.51 16.88C105.81 16.7324 105.206 16.5182 104.701 16.2316C104.192 15.9451 103.793 15.5861 103.501 15.1549C103.209 14.7236 103.062 14.2257 103.062 13.6671C103.062 13.1084 103.207 12.5961 103.501 12.1677C103.793 11.7422 104.192 11.3862 104.701 11.0997C105.209 10.8131 105.813 10.6018 106.51 10.46C107.209 10.321 107.957 10.2487 108.758 10.2487C109.558 10.2487 110.301 10.321 110.986 10.4687C111.671 10.6163 112.272 10.8305 112.786 11.117C113.301 11.4036 113.703 11.7596 113.997 12.1851C114.289 12.6106 114.437 13.1055 114.437 13.6642V13.6671ZM105.539 24.1625C105.209 24.1625 104.958 24.0641 104.787 23.8673C104.617 23.6705 104.53 23.4187 104.53 23.1147V17.676H108.55V19.2014H116.208V17.676H120.228V24.1625H105.539ZM106.721 8.64802V7.00684H110.74V8.64802H106.721ZM107.082 13.6671C107.082 14.2778 107.241 14.7294 107.559 15.0217C107.877 15.3141 108.275 15.4617 108.758 15.4617C109.215 15.4617 109.605 15.3169 109.928 15.0217C110.252 14.7294 110.414 14.2778 110.414 13.6671C110.414 13.0563 110.252 12.6366 109.928 12.3327C109.605 12.0259 109.215 11.8754 108.758 11.8754C108.275 11.8754 107.874 12.0288 107.559 12.3327C107.241 12.6366 107.082 13.0824 107.082 13.6671ZM116.208 22.4635V20.8599H108.55V22.4635H116.208ZM116.702 15.8814H114.015V14.2228H116.702V15.8814ZM116.722 12.5411H114.055V10.8826H116.722V12.5411ZM116.208 7.19787H120.228V17.1H116.208V7.19787Z" fill="#E60012"/>
  <path d="M139.088 15.2331V16.9119H121.523V15.2331H139.088ZM138.536 21.1466C138.536 21.7052 138.348 22.2002 137.976 22.6257C137.6 23.0512 137.062 23.413 136.357 23.714C135.652 24.0122 134.791 24.2379 133.777 24.3913C132.759 24.5447 131.612 24.62 130.329 24.62C129.046 24.62 127.899 24.5447 126.89 24.3913C125.881 24.2379 125.023 24.0122 124.318 23.714C123.613 23.4159 123.072 23.0512 122.7 22.6257C122.324 22.2002 122.139 21.7052 122.139 21.1466C122.139 20.588 122.327 20.0901 122.7 19.6588C123.075 19.2275 123.613 18.8599 124.318 18.5618C125.023 18.2637 125.881 18.0379 126.89 17.8845C127.899 17.7311 129.046 17.6558 130.329 17.6558C131.612 17.6558 132.762 17.7311 133.777 17.8845C134.794 18.0379 135.652 18.2637 136.357 18.5618C137.062 18.8599 137.603 19.2275 137.976 19.6588C138.351 20.093 138.536 20.588 138.536 21.1466ZM123.503 13.783C123.174 13.783 122.922 13.6846 122.752 13.4878C122.581 13.2909 122.494 13.0449 122.494 12.7526V7.58008H138.117V9.27915H126.514V12.1042H138.212V13.783H123.506H123.503ZM126.153 21.1466C126.153 21.6184 126.508 22.0294 127.219 22.3883C127.93 22.7444 128.965 22.9238 130.326 22.9238C131.687 22.9238 132.756 22.7444 133.459 22.3883C134.164 22.0323 134.516 21.6184 134.516 21.1466C134.516 20.6748 134.161 20.258 133.45 19.8962C132.739 19.5344 131.699 19.352 130.326 19.352C128.953 19.352 127.933 19.5344 127.219 19.8962C126.508 20.258 126.153 20.6748 126.153 21.1466ZM128.381 15.4994V13.3807H132.592V15.4994H128.381Z" fill="#E60012"/>
  <path d="M148.757 14.0695C148.338 14.6686 147.821 15.2186 147.205 15.7193C146.59 16.223 145.928 16.6571 145.223 17.0276C144.518 17.3952 143.801 17.6934 143.07 17.9163C142.339 18.1391 141.651 18.2694 141.004 18.307L140.146 16.9321C141.186 16.7932 142.119 16.4835 142.946 16.0059C143.772 15.5283 144.463 14.9523 145.024 14.2779C145.581 13.6034 146.012 12.8653 146.31 12.0636C146.607 11.2618 146.758 10.46 146.758 9.65824V8.05469H150.777V9.65824C150.777 10.46 150.928 11.2618 151.225 12.0636C151.523 12.8653 151.959 13.6034 152.532 14.2779C153.104 14.9523 153.797 15.5283 154.618 16.0059C155.436 16.4835 156.366 16.7903 157.41 16.9321L156.551 18.307C155.904 18.2694 155.21 18.1391 154.474 17.9163C153.737 17.6934 153.017 17.3952 152.312 17.019C151.607 16.6427 150.942 16.2056 150.321 15.702C149.699 15.1983 149.176 14.657 148.757 14.0695Z" fill="#E60012"/>
  <path d="M157.473 21.6616H140.079V23.3983H157.473V21.6616Z" fill="#E60012"/>
  <path d="M156.423 7.67578H141.124V9.41248H156.423V7.67578Z" fill="#E60012"/>
  <path d="M150.88 18.1709H146.67V22.1393H150.88V18.1709Z" fill="#E60012"/>
  <path d="M170.16 8.21095V9.85213H158.138V8.21095H170.16ZM169.873 13.6671C169.873 14.2257 169.723 14.7236 169.426 15.1549C169.128 15.5861 168.72 15.9479 168.206 16.2316C167.692 16.5182 167.082 16.7353 166.377 16.88C165.672 17.0276 164.92 17.1 164.12 17.1C163.319 17.1 162.551 17.0276 161.851 16.88C161.152 16.7324 160.545 16.5182 160.031 16.2316C159.516 15.9451 159.112 15.5861 158.82 15.1549C158.528 14.7236 158.38 14.2257 158.38 13.6671C158.38 13.1084 158.525 12.5961 158.82 12.1677C159.112 11.7422 159.516 11.3862 160.031 11.0997C160.545 10.8131 161.152 10.6018 161.851 10.46C162.551 10.321 163.305 10.2487 164.12 10.2487C164.935 10.2487 165.672 10.321 166.377 10.4687C167.082 10.6163 167.692 10.8305 168.206 11.117C168.72 11.4036 169.128 11.7596 169.426 12.1851C169.723 12.6106 169.873 13.1055 169.873 13.6642V13.6671ZM160.406 24.1625C160.077 24.1625 159.825 24.0641 159.655 23.8673C159.484 23.6705 159.398 23.4187 159.398 23.1147V17.676H163.417V19.2014H171.058V17.676H175.078V24.1625H160.409H160.406ZM162.1 8.64802V7.00684H166.12V8.64802H162.1ZM162.406 13.6671C162.406 14.2778 162.571 14.7294 162.9 15.0217C163.23 15.3141 163.637 15.4617 164.12 15.4617C164.602 15.4617 165.013 15.3169 165.348 15.0217C165.683 14.7294 165.854 14.2778 165.854 13.6671C165.854 13.0563 165.686 12.6366 165.348 12.3327C165.01 12.0259 164.602 11.8754 164.12 11.8754C163.637 11.8754 163.23 12.0288 162.9 12.3327C162.571 12.6366 162.406 13.0824 162.406 13.6671ZM171.055 22.4635V20.8599H163.415V22.4635H171.055ZM175.075 17.1029H171.055V7.20077H175.075V17.1029ZM174.333 11.3399H177V13.2474H174.333V11.3399Z" fill="#E60012"/>
  <path d="M47.5859 16.4719V14.8105H65.1506V16.4719H47.5859ZM64.694 10.5006C64.694 11.0592 64.5033 11.5628 64.1218 12.0086C63.7404 12.4543 63.1942 12.8277 62.4833 13.1346C61.7724 13.4385 60.9025 13.6758 59.8737 13.8408C58.8449 14.0058 57.6774 14.0897 56.3683 14.0897C55.0592 14.0897 53.9119 14.0058 52.8831 13.8408C51.8543 13.6758 50.9844 13.4414 50.2735 13.1346C49.5626 12.8306 49.0193 12.4543 48.6436 12.0086C48.268 11.5628 48.083 11.0621 48.083 10.5006C48.083 9.93903 48.2708 9.43828 48.6436 8.99252C49.0193 8.54677 49.5597 8.17338 50.2735 7.86656C50.9844 7.56264 51.8543 7.32819 52.8831 7.16899C53.9119 7.00979 55.0736 6.93164 56.3683 6.93164C57.6629 6.93164 58.8449 7.01558 59.8737 7.18057C60.9025 7.34555 61.7724 7.58001 62.4833 7.88683C63.1942 8.19075 63.7404 8.56414 64.1218 9.0041C64.5033 9.44407 64.694 9.94192 64.694 10.5035V10.5006ZM49.5684 24.1626C49.2389 24.1626 48.9875 24.0642 48.817 23.8674C48.6465 23.6705 48.5598 23.4187 48.5598 23.1148V20.0437H60.18V19.2043H48.5598V17.5458H64.1999V21.6299H52.5796V22.4693H64.2952V24.1684H49.5684V24.1626ZM52.0826 10.5006C52.0826 10.7553 52.178 10.9955 52.3687 11.2271C52.5594 11.4557 52.8368 11.6641 53.1981 11.8465C53.5593 12.0318 54.0072 12.1765 54.5419 12.2865C55.0765 12.3936 55.6863 12.4486 56.3712 12.4486C57.0561 12.4486 57.689 12.3936 58.2294 12.2865C58.7698 12.1794 59.2206 12.0318 59.5818 11.8465C59.9431 11.6613 60.2176 11.4557 60.3997 11.2271C60.5846 10.9984 60.6771 10.7553 60.6771 10.5006C60.6771 10.2458 60.5846 10.0201 60.3997 9.78562C60.2147 9.55116 59.9431 9.34276 59.5818 9.16619C59.2206 8.98674 58.7698 8.8449 58.2294 8.73781C57.689 8.63071 57.0705 8.57572 56.3712 8.57572C55.6718 8.57572 55.0765 8.63071 54.5419 8.73781C54.0072 8.8449 53.5622 8.98963 53.1981 9.16619C52.8368 9.34565 52.5594 9.54827 52.3687 9.77693C52.178 10.0056 52.0826 10.2487 52.0826 10.5035V10.5006ZM58.4837 16.1477V17.9423H54.2731V16.1477H58.4837Z" fill="#E60012"/>
  <path d="M66.1631 19.9249V18.1882H83.5573V19.9249H66.1631ZM74.8501 16.9291C73.6565 16.9291 72.5555 16.8104 71.544 16.5759C70.5355 16.3415 69.6656 16.0115 68.9345 15.5831C68.2033 15.1576 67.6369 14.6453 67.2295 14.0461C66.822 13.4499 66.6197 12.7812 66.6197 12.0431C66.6197 11.305 66.822 10.6538 67.2295 10.0488C67.6369 9.44388 68.2033 8.92866 68.9345 8.50317C69.6656 8.07768 70.5355 7.74771 71.544 7.51036C72.5526 7.2759 73.6565 7.15723 74.8501 7.15723C76.0436 7.15723 77.1446 7.2759 78.1561 7.51036C79.1647 7.74481 80.0403 8.07768 80.7743 8.50317C81.5112 8.92866 82.0834 9.44388 82.488 10.0488C82.8955 10.6538 83.0978 11.3166 83.0978 12.0431C83.0978 12.7697 82.8955 13.4499 82.488 14.0461C82.0805 14.6453 81.5112 15.1576 80.7743 15.5831C80.0374 16.0086 79.1647 16.3415 78.1561 16.5759C77.1475 16.8104 76.0436 16.9291 74.8501 16.9291ZM74.8501 15.1953C75.4858 15.1953 76.0638 15.1229 76.584 14.9753C77.1042 14.8277 77.5492 14.6192 77.9162 14.3443C78.2832 14.0693 78.5693 13.7393 78.7745 13.3515C78.9768 12.9636 79.078 12.5294 79.078 12.0431C79.078 11.5569 78.9768 11.1256 78.7745 10.7348C78.5722 10.347 78.2861 10.017 77.9162 9.74202C77.5463 9.46993 77.1042 9.25863 76.584 9.11101C76.0638 8.96339 75.4858 8.89103 74.8501 8.89103C74.2143 8.89103 73.6392 8.96339 73.1248 9.11101C72.6104 9.25863 72.1683 9.46704 71.8012 9.74202C71.4313 10.017 71.1481 10.347 70.9429 10.7348C70.7407 11.1227 70.6395 11.5598 70.6395 12.0431C70.6395 12.5265 70.7407 12.9636 70.9429 13.3515C71.1452 13.7393 71.4313 14.0693 71.8012 14.3443C72.1683 14.6192 72.6104 14.8277 73.1248 14.9753C73.6392 15.1229 74.2143 15.1953 74.8501 15.1953ZM76.9655 19.6209V24.1624H72.7549V19.6209H76.9655Z" fill="#E60012"/>
  <path d="M84.6396 19.9249V18.1882H102.034V19.9249H84.6396ZM93.3266 16.9291C92.1331 16.9291 91.0321 16.8104 90.0206 16.5759C89.012 16.3415 88.1422 16.0115 87.411 15.5831C86.6799 15.1576 86.1135 14.6453 85.706 14.0461C85.2985 13.4499 85.0962 12.7812 85.0962 12.0431C85.0962 11.305 85.2985 10.6538 85.706 10.0488C86.1135 9.44388 86.6799 8.92866 87.411 8.50317C88.1422 8.07768 89.012 7.74771 90.0206 7.51036C91.0292 7.2759 92.1331 7.15723 93.3266 7.15723C94.5201 7.15723 95.6212 7.2759 96.6326 7.51036C97.6412 7.74481 98.514 8.07768 99.2509 8.50317C99.9878 8.92866 100.56 9.44388 100.965 10.0488C101.372 10.6538 101.574 11.3166 101.574 12.0431C101.574 12.7697 101.372 13.4499 100.965 14.0461C100.557 14.6453 99.9878 15.1576 99.2509 15.5831C98.514 16.0086 97.6412 16.3415 96.6326 16.5759C95.6241 16.8104 94.5201 16.9291 93.3266 16.9291ZM91.4598 19.5254V24.1624H87.3243V19.5254H91.4598ZM93.3266 15.1953C93.9624 15.1953 94.5404 15.1229 95.0606 14.9753C95.5807 14.8277 96.0258 14.6192 96.3928 14.3443C96.7598 14.0693 97.0459 13.7393 97.2511 13.3515C97.4534 12.9636 97.5545 12.5294 97.5545 12.0431C97.5545 11.5569 97.4534 11.1256 97.2511 10.7348C97.0488 10.347 96.7627 10.017 96.3928 9.74202C96.0229 9.46993 95.5807 9.25863 95.0606 9.11101C94.5404 8.96339 93.9624 8.89103 93.3266 8.89103C92.6909 8.89103 92.1158 8.96339 91.6014 9.11101C91.087 9.25863 90.6448 9.46704 90.2778 9.74202C89.9108 10.017 89.6247 10.347 89.4195 10.7348C89.2172 11.1227 89.1161 11.5598 89.1161 12.0431C89.1161 12.5265 89.2172 12.9636 89.4195 13.3515C89.6218 13.7393 89.9079 14.0693 90.2778 14.3443C90.6448 14.6192 91.087 14.8277 91.6014 14.9753C92.1158 15.1229 92.6909 15.1953 93.3266 15.1953ZM99.3462 19.5254V24.1624H95.2108V19.5254H99.3462Z" fill="#E60012"/>
  <path d="M36.6742 12.4222C36.6742 16.1069 38.0382 19.9682 41.3615 21.9278L40.0553 23.2361C37.8012 22.168 35.9026 20.2056 34.5992 17.7105C33.4722 20.1477 31.2181 22.4633 29.0825 23.4156L27.8369 22.2867C31.0389 19.9103 32.6428 16.1677 32.6428 12.4251V7.67236H36.6771V12.4251L36.6742 12.4222Z" fill="#E60012"/>
  <path d="M42.3099 15.1315H38.9287V13.1719H42.3099V7.22949H46.3441V24.1623H42.3099V15.1315Z" fill="#E60012"/>
  <path d="M23.5265 5.93587C22.0411 4.4481 20.2725 3.3395 18.345 2.66509C17.2641 1.3423 15.6198 0.5 13.7818 0.5C11.9439 0.5 10.2995 1.34519 9.21872 2.66509C7.29117 3.3395 5.52545 4.4481 4.03716 5.93587C1.43338 8.54382 0 12.0085 0 15.6961C0 19.3837 1.43338 22.8484 4.03716 25.4564C6.64094 28.0643 10.1001 29.5 13.7818 29.5C17.4635 29.5 20.9227 28.0643 23.5265 25.4564C26.1303 22.8484 27.5637 19.3837 27.5637 15.6961C27.5637 12.0085 26.1303 8.54382 23.5265 5.93587Z" fill="white"/>
  <path d="M18.9719 3.77356C19.3939 4.58112 19.6308 5.50157 19.6308 6.45676C19.6308 9.82017 17.082 12.3181 13.7788 12.3181C10.4757 12.3181 7.92683 9.82017 7.92683 6.45676C7.92683 5.50157 8.16669 4.52902 8.58572 3.77356C3.98214 5.77655 0.771484 10.3701 0.771484 15.7163C0.771484 22.9004 6.60326 28.7242 13.7759 28.7242C20.9486 28.7242 26.7804 22.9004 26.7804 15.7163C26.7804 10.3701 23.5697 5.77655 18.9662 3.77356H18.9719ZM13.7817 1.29297C11.0479 1.29297 8.8487 3.46095 8.8487 6.08916C8.8487 7.61456 9.78502 8.62474 11.1606 8.71736C12.5911 8.80999 13.7297 7.72455 13.7846 6.19915C13.8395 4.87636 14.7932 3.79382 16.1861 3.79382C17.579 3.79382 18.4604 4.91399 18.6627 6.25704C18.6627 6.29467 18.735 6.29467 18.735 6.25704C18.7523 3.44648 16.5531 1.29586 13.7817 1.29586V1.29297ZM4.81154 15.9912C4.81154 17.1317 5.23346 18.3242 6.25937 18.9321L5.85478 19.3373C5.15832 19.0073 4.57168 18.3995 4.16709 17.6295C3.81742 18.3821 3.12096 19.0999 2.46206 19.3923L2.07771 19.042C3.06894 18.3068 3.56311 17.149 3.56311 15.9912V14.5208H4.81154V15.9912ZM9.72722 15.3834C9.72722 15.696 10.2041 15.9883 11.0479 15.9883C11.8917 15.9883 12.3686 15.6931 12.3686 15.3834C12.3686 15.0882 11.9091 14.7958 11.0479 14.7958C10.1867 14.7958 9.72722 15.0911 9.72722 15.3834ZM13.617 15.3834C13.617 16.1012 12.6633 16.5036 11.0479 16.5036C9.43245 16.5036 8.47879 16.0983 8.47879 15.3834C8.47879 14.7235 9.43245 14.2806 11.0479 14.2806C12.6633 14.2806 13.617 14.7206 13.617 15.3834ZM16.8277 17.3864C15.3596 17.3864 14.2788 16.7814 14.2788 15.861C14.2788 14.9405 15.3596 14.3559 16.8277 14.3559C18.2957 14.3559 19.3765 14.9608 19.3765 15.861C19.3765 16.7612 18.3131 17.3864 16.8277 17.3864ZM16.8277 16.8538C17.6166 16.8538 18.131 16.4688 18.131 15.861C18.131 15.2531 17.6166 14.8884 16.8277 14.8884C16.0387 14.8884 15.5243 15.2734 15.5243 15.861C15.5243 16.4486 16.0387 16.8538 16.8277 16.8538ZM6.55413 16.8162H5.508V16.2112H6.55413V14.3732H7.80256V19.6094H6.55413V16.8162ZM8.93828 19.6094C8.75622 19.6094 8.62618 19.482 8.62618 19.2968V18.3416H12.2212V18.0666H8.62618V17.5716H10.4063V17.2417H8.3343V16.7264H13.7644V17.2417H11.7097V17.5716H13.4696V18.8221H9.87461V19.097H13.5072V19.6123H8.94117L8.93828 19.6094ZM17.4692 18.3039V19.6094H16.1659V18.3039H14.1285V17.7714H19.521V18.3039H17.4663H17.4692ZM24.4743 18.3039V19.6094H23.1912V18.3039H22.0352V19.6094H20.7521V18.3039H19.9256V17.7714H25.3181V18.3039H24.4743ZM22.6219 17.3864C21.1538 17.3864 20.073 16.7814 20.073 15.861C20.073 14.9405 21.1538 14.3559 22.6219 14.3559C24.0899 14.3559 25.1707 14.9608 25.1707 15.861C25.1707 16.7612 24.1073 17.3864 22.6219 17.3864ZM22.6219 16.8538C23.4108 16.8538 23.9252 16.4688 23.9252 15.861C23.9252 15.2531 23.4108 14.8884 22.6219 14.8884C21.8329 14.8884 21.3185 15.2734 21.3185 15.861C21.3185 16.4486 21.8329 16.8538 22.6219 16.8538Z" fill="#E60012"/>
</svg>