<svg xmlns="http://www.w3.org/2000/svg" width="48" height="76" viewBox="0 0 48 76" fill="none">
  <path d="M37.9775 75.5993H10.324C6.31095 75.5993 1.84877 73.1624 0.388826 69.6574C0.0414038 68.8234 0.000157612 67.904 0.000153697 67.0005L5.7081e-05 44.7031C1.93109e-05 35.9864 1.50563 27.3351 4.45048 19.1309L6.59286 13.1623C7.26446 11.0299 7.30708 10.9839 8.52672 10.9839H39.1737C40.3934 10.9839 40.4386 11.0299 41.1076 13.1623L43.1747 18.671C46.3655 27.1741 48 36.182 48 45.264V67.0005C48 67.904 47.957 68.8221 47.6197 69.6603C46.2099 73.1637 41.9894 75.5993 37.9775 75.5993Z" fill="#E1E1E8"/>
  <path d="M22.0908 61.5C13.2681 65.1314 11.6529 63.6508 4.61536 61.5V65.499C4.61536 67.3373 7.01424 69.7286 9.35606 69.7286L38.2853 69.7286C41.5384 69.7286 43.3846 69.1835 43.3846 65.499V59.6035C35.808 57.3752 30.5351 58.1197 22.0908 61.5Z" fill="#F7F7FA"/>
  <rect x="5.53845" y="0.875977" width="36.9231" height="12.9231" rx="6.46154" fill="#E1E1E8"/>
</svg>