<svg width="20" height="20" viewBox="0 0 20 20" fill="none" xmlns="http://www.w3.org/2000/svg">
<path d="M14.2 19H4.93137C4.32555 19 4.02265 19 3.88238 18.8802C3.76068 18.7763 3.69609 18.6203 3.70865 18.4608C3.72312 18.2769 3.93731 18.0627 4.36569 17.6343L12.8686 9.13137C13.2646 8.73536 13.4627 8.53735 13.691 8.46316C13.8918 8.3979 14.1082 8.3979 14.309 8.46316C14.5373 8.53735 14.7354 8.73535 15.1314 9.13137L19 13V14.2M14.2 19C15.8802 19 16.7202 19 17.362 18.673C17.9265 18.3854 18.3854 17.9265 18.673 17.362C19 16.7202 19 15.8802 19 14.2M14.2 19H5.8C4.11984 19 3.27976 19 2.63803 18.673C2.07354 18.3854 1.6146 17.9265 1.32698 17.362C1 16.7202 1 15.8802 1 14.2V5.8C1 4.11984 1 3.27976 1.32698 2.63803C1.6146 2.07354 2.07354 1.6146 2.63803 1.32698C3.27976 1 4.11984 1 5.8 1H14.2C15.8802 1 16.7202 1 17.362 1.32698C17.9265 1.6146 18.3854 2.07354 18.673 2.63803C19 3.27976 19 4.11984 19 5.8V14.2M8.5 6.5C8.5 7.60457 7.60457 8.5 6.5 8.5C5.39543 8.5 4.5 7.60457 4.5 6.5C4.5 5.39543 5.39543 4.5 6.5 4.5C7.60457 4.5 8.5 5.39543 8.5 6.5Z" stroke="#009857" stroke-width="2" stroke-linecap="round" stroke-linejoin="round"/>
</svg>
