<svg xmlns="http://www.w3.org/2000/svg" width="32" height="32" viewBox="0 0 32 32" fill="none">
  <path d="M2.89215 24.8L14.1114 5.86218C14.7315 4.81554 15.0415 4.29222 15.446 4.11645C15.7989 3.96314 16.2016 3.96314 16.5545 4.11645C16.9589 4.29222 17.269 4.81554 17.889 5.86218L29.1083 24.8C29.7306 25.8504 30.0418 26.3756 29.9958 26.8067C29.9557 27.1826 29.7541 27.5243 29.4412 27.7466C29.0826 28.0015 28.4616 28.0015 27.2195 28.0015H4.78095C3.53894 28.0015 2.91793 28.0015 2.55924 27.7466C2.24638 27.5243 2.04481 27.1826 2.0047 26.8067C1.95871 26.3756 2.26986 25.8504 2.89215 24.8Z" stroke="#EEAE00" stroke-width="2" stroke-linecap="round" stroke-linejoin="round"/>
  <path d="M15.9107 11.3398C16.6468 11.3398 17.2435 11.9366 17.2435 12.6726V18.0038C17.2435 18.7399 16.6468 19.3366 15.9107 19.3366C15.1746 19.3366 14.5779 18.7399 14.5779 18.0038V12.6726C14.5779 11.9366 15.1746 11.3398 15.9107 11.3398Z" fill="#EEAE00"/>
  <path d="M14.5779 23.335C14.5779 22.5989 15.1746 22.0022 15.9107 22.0022H15.924C16.6601 22.0022 17.2568 22.5989 17.2568 23.335C17.2568 24.0711 16.6601 24.6678 15.924 24.6678H15.9107C15.1746 24.6678 14.5779 24.0711 14.5779 23.335Z" fill="#EEAE00"/>
</svg>