<svg width="24" height="24" viewBox="0 0 24 24" fill="none" xmlns="http://www.w3.org/2000/svg">
<path fill-rule="evenodd" clip-rule="evenodd" d="M14.4243 3.90323C15.1181 3.33853 16.0034 3 16.9677 3C19.1947 3 21 4.8053 21 7.03226C21 9.25921 19.1947 11.0645 16.9677 11.0645C16.0034 11.0645 15.1181 10.726 14.4243 10.1613H6.12903C4.40092 10.1613 3 8.76037 3 7.03226C3 5.30414 4.40092 3.90323 6.12903 3.90323H14.4243ZM16.9677 4.74194C15.7028 4.74194 14.6774 5.76735 14.6774 7.03226C14.6774 8.29717 15.7028 9.32258 16.9677 9.32258C18.2327 9.32258 19.2581 8.29717 19.2581 7.03226C19.2581 5.76735 18.2327 4.74194 16.9677 4.74194ZM13.1804 5.64516H6.12903C5.36296 5.64516 4.74194 6.26619 4.74194 7.03226C4.74194 7.79833 5.36296 8.41935 6.12903 8.41935H13.1804C13.022 7.98686 12.9355 7.51966 12.9355 7.03226C12.9355 6.54486 13.022 6.07766 13.1804 5.64516Z" fill="#525463"/>
<path fill-rule="evenodd" clip-rule="evenodd" d="M3 16.9677C3 14.7408 4.8053 12.9355 7.03226 12.9355C7.9966 12.9355 8.88188 13.274 9.57574 13.8387H17.871C19.5991 13.8387 21 15.2396 21 16.9677C21 18.6959 19.5991 20.0968 17.871 20.0968H9.57574C8.88188 20.6615 7.9966 21 7.03226 21C4.8053 21 3 19.1947 3 16.9677ZM10.8196 18.3548H17.871C18.637 18.3548 19.2581 17.7338 19.2581 16.9677C19.2581 16.2017 18.637 15.5806 17.871 15.5806H10.8196C10.978 16.0131 11.0645 16.4803 11.0645 16.9677C11.0645 17.4551 10.978 17.9223 10.8196 18.3548ZM7.03226 14.6774C5.76735 14.6774 4.74194 15.7028 4.74194 16.9677C4.74194 18.2327 5.76735 19.2581 7.03226 19.2581C8.29717 19.2581 9.32258 18.2327 9.32258 16.9677C9.32258 15.7028 8.29717 14.6774 7.03226 14.6774Z" fill="#525463"/>
</svg>
