<svg xmlns="http://www.w3.org/2000/svg" width="32" height="32" viewBox="0 0 32 32" fill="none">
  <g clip-path="url(#clip0_822_8485)">
    <path d="M22 22C22 22 19.75 19 16 19C12.25 19 10 22 10 22M20.5 11.5H20.515M11.5 11.5H11.515M31 16C31 24.2843 24.2843 31 16 31C7.71573 31 1 24.2843 1 16C1 7.71573 7.71573 1 16 1C24.2843 1 31 7.71573 31 16ZM21.25 11.5C21.25 11.9142 20.9142 12.25 20.5 12.25C20.0858 12.25 19.75 11.9142 19.75 11.5C19.75 11.0858 20.0858 10.75 20.5 10.75C20.9142 10.75 21.25 11.0858 21.25 11.5ZM12.25 11.5C12.25 11.9142 11.9142 12.25 11.5 12.25C11.0858 12.25 10.75 11.9142 10.75 11.5C10.75 11.0858 11.0858 10.75 11.5 10.75C11.9142 10.75 12.25 11.0858 12.25 11.5Z" stroke="#EEAE00" stroke-width="2" stroke-linecap="round" stroke-linejoin="round"/>
  </g>
  <defs>
    <clipPath id="clip0_822_8485">
      <rect width="32" height="32" fill="white"/>
    </clipPath>
  </defs>
</svg>